<?xml version="1.0" encoding="utf-8"?>
<!-- Generator: Adobe Illustrator 25.2.0, SVG Export Plug-In . SVG Version: 6.00 Build 0)  -->
<svg version="1.1" id="Layer_1" xmlns="http://www.w3.org/2000/svg" xmlns:xlink="http://www.w3.org/1999/xlink" x="0px" y="0px"
	 viewBox="0 0 612 792" style="enable-background:new 0 0 612 792;" xml:space="preserve">
<style type="text/css">
	.st0{fill:#FFFFFF;stroke:#FFFFFF;stroke-width:2;stroke-miterlimit:10;}
	.st1{fill:url(#SVGID_1_);stroke:url(#SVGID_2_);stroke-miterlimit:10;}
	.st2{fill:#FFFFFF;stroke:#FFFFFF;stroke-miterlimit:10;}
	.st3{fill:url(#SVGID_3_);stroke:url(#SVGID_4_);stroke-miterlimit:10;}
	.st4{fill:url(#SVGID_5_);stroke:url(#SVGID_6_);stroke-miterlimit:10;}
	.st5{fill:url(#SVGID_7_);stroke:url(#SVGID_8_);stroke-miterlimit:10;}
</style>
<g>
	<circle class="st0" cx="306.91" cy="382.11" r="149.36"/>
	<g>
		<linearGradient id="SVGID_1_" gradientUnits="userSpaceOnUse" x1="198.6596" y1="401.2835" x2="390.9149" y2="401.2835">
			<stop  offset="0" style="stop-color:#FFFFFF"/>
			<stop  offset="0.0898" style="stop-color:#C6C4DF"/>
			<stop  offset="0.2206" style="stop-color:#8A87BD"/>
			<stop  offset="0.3384" style="stop-color:#6263A7"/>
			<stop  offset="0.4388" style="stop-color:#444B9A"/>
			<stop  offset="0.518" style="stop-color:#313E92"/>
			<stop  offset="0.566" style="stop-color:#2B3990"/>
			<stop  offset="0.6784" style="stop-color:#2A2E79"/>
			<stop  offset="0.7951" style="stop-color:#282669"/>
			<stop  offset="0.8675" style="stop-color:#272363"/>
			<stop  offset="1" style="stop-color:#262262"/>
		</linearGradient>
		<linearGradient id="SVGID_2_" gradientUnits="userSpaceOnUse" x1="196.7171" y1="401.4796" x2="391.5033" y2="401.4796">
			<stop  offset="0" style="stop-color:#FFFFFF"/>
			<stop  offset="0.0898" style="stop-color:#C6C4DF"/>
			<stop  offset="0.2206" style="stop-color:#8A87BD"/>
			<stop  offset="0.3384" style="stop-color:#6263A7"/>
			<stop  offset="0.4388" style="stop-color:#444B9A"/>
			<stop  offset="0.518" style="stop-color:#313E92"/>
			<stop  offset="0.566" style="stop-color:#2B3990"/>
			<stop  offset="0.6784" style="stop-color:#2A2E79"/>
			<stop  offset="0.7951" style="stop-color:#282669"/>
			<stop  offset="0.8675" style="stop-color:#272363"/>
			<stop  offset="1" style="stop-color:#262262"/>
		</linearGradient>
		<path class="st1" d="M206.23,435.81c-1.03-0.89-2.9-3.19-1.02-16.34c0.83-5.81,1.42-9.95,3.4-16c0.9-2.76,3.59-10.47,9.87-20.43
			c9.13-14.47,19.53-23.65,23.83-27.23c7.26-6.04,18.69-15.55,36.09-20.43c22.12-6.19,41.38-1.39,50.72,1.7
			c0.09,1.73,0.05,4.25-0.68,7.15c-1.83,7.28-6.64,11.66-8.85,13.62c-5.28,4.67-10.74,6.51-19.06,8.85
			c-14.35,4.04-21.16,5.05-34.04,8.17c-13.49,3.26-20.38,4.97-27.23,8.51c-6.91,3.57-15.05,7.77-20.77,17.02
			c-5.89,9.53-6.03,19.28-5.79,23.83c0.57-3.26,1.86-8.45,5.11-13.96c6.41-10.87,16.19-15.76,20.77-18.04
			c5.96-2.98,11.21-4.27,17.36-5.79c5.27-1.3,9.56-1.96,14.64-2.72c8.8-1.33,10.84-1.21,17.02-2.04c9.95-1.35,19.54-2.64,29.96-7.83
			c4.62-2.3,9.58-4.83,14.3-10.21c4.98-5.69,7.16-11.67,8.17-15.32c0.78,1.7,1.73,4.26,2.13,7.49c0.21,1.73,0.33,4.15-0.26,7.91
			c-1.31,8.36-4.73,14.69-5.36,15.83c-3.92,7.09-8.66,11.58-12.26,14.81c-12.22,10.98-25.14,20-34.47,26.04
			c3.32-1.17,7.86-2.96,13.02-5.62c8.21-4.23,13.78-8.5,18.64-12.26c8.51-6.59,12.77-9.88,16.85-15.32
			c2.31-3.07,6.92-9.35,9.19-18.89c1.85-7.76,1.37-14.37,0.77-18.38c2.07-1.97,5.2-4.57,9.45-6.89c0.83-0.45,5.33-2.88,9.45-3.83
			c10.66-2.47,20.97,4.41,23.74,6.38c-0.9,2.79-2.28,6.61-4.34,10.98c0,0-4.02,8.53-10.47,17.11c-11.8,15.69-30.09,28.42-33.7,30.89
			c0.45-1.88,0.86-4.41,0.77-7.4c-0.07-2.19-0.39-4.09-0.77-5.62c-0.52,1.55-1.31,3.86-2.3,6.64c-4.45,12.49-11.2,29.49-15.57,37.53
			c-3.78,6.96-13.62,21.65-39.57,34.47c0.51-2.72,1.18-5.9,2.04-9.45c0.2-0.8,1.26-5.16,2.81-10.21c2.72-8.89,5.94-16.81,8.17-21.96
			c-1.03,0.84-2.78,2.19-5.11,3.57c-2.22,1.32-9.06,5.12-26.55,7.4c-9.54,1.24-11.31,0.61-15.06,2.81
			c-2.36,1.39-3.38,2.65-9.19,8.43c0,0-1.49,1.48-9.45,9.19c-4.5,4.36-13.62,8.78-33.96,8.94c4.14-2.32,7.18-4.79,9.19-6.64
			c2.72-2.49,8.47-7.9,11.74-16.85c1.25-3.43,1.79-6.41,2.04-8.43c-1.75,0.46-4.42,0.96-7.66,0.77
			C210.82,437.58,208.09,437.41,206.23,435.81z"/>
		<path class="st2" d="M363.85,354.53c-0.2-0.22-1.81-2.09-1.28-4.34c0.59-2.46,3.3-3.48,5.11-3.57c0.45-0.02,3.2-0.16,4.34,1.79
			c0.97,1.66,0.14,3.75-0.77,4.85C369.73,355.12,366.73,355.68,363.85,354.53z"/>
		<linearGradient id="SVGID_3_" gradientUnits="userSpaceOnUse" x1="383.3113" y1="322.7641" x2="392.5376" y2="322.7641">
			<stop  offset="0" style="stop-color:#FFFFFF"/>
			<stop  offset="0.0898" style="stop-color:#C6C4DF"/>
			<stop  offset="0.2206" style="stop-color:#8A87BD"/>
			<stop  offset="0.3384" style="stop-color:#6263A7"/>
			<stop  offset="0.4388" style="stop-color:#444B9A"/>
			<stop  offset="0.518" style="stop-color:#313E92"/>
			<stop  offset="0.566" style="stop-color:#2B3990"/>
			<stop  offset="0.6784" style="stop-color:#2A2E79"/>
			<stop  offset="0.7951" style="stop-color:#282669"/>
			<stop  offset="0.8675" style="stop-color:#272363"/>
			<stop  offset="1" style="stop-color:#262262"/>
		</linearGradient>
		<linearGradient id="SVGID_4_" gradientUnits="userSpaceOnUse" x1="382.8113" y1="322.7641" x2="393.0376" y2="322.7641">
			<stop  offset="0" style="stop-color:#FFFFFF"/>
			<stop  offset="0.0898" style="stop-color:#C6C4DF"/>
			<stop  offset="0.2206" style="stop-color:#8A87BD"/>
			<stop  offset="0.3384" style="stop-color:#6263A7"/>
			<stop  offset="0.4388" style="stop-color:#444B9A"/>
			<stop  offset="0.518" style="stop-color:#313E92"/>
			<stop  offset="0.566" style="stop-color:#2B3990"/>
			<stop  offset="0.6784" style="stop-color:#2A2E79"/>
			<stop  offset="0.7951" style="stop-color:#282669"/>
			<stop  offset="0.8675" style="stop-color:#272363"/>
			<stop  offset="1" style="stop-color:#262262"/>
		</linearGradient>
		<path class="st3" d="M385.81,326.7c-2.57-1.58-3.14-4.78-1.79-6.64c1.35-1.85,4.25-1.91,6.13-0.77c1.49,0.9,2.74,2.81,2.3,4.6
			C391.91,326.03,389,327.68,385.81,326.7z"/>
		<linearGradient id="SVGID_5_" gradientUnits="userSpaceOnUse" x1="391.3397" y1="335.1618" x2="398.8984" y2="335.1618">
			<stop  offset="0" style="stop-color:#FFFFFF"/>
			<stop  offset="0.0898" style="stop-color:#C6C4DF"/>
			<stop  offset="0.2206" style="stop-color:#8A87BD"/>
			<stop  offset="0.3384" style="stop-color:#6263A7"/>
			<stop  offset="0.4388" style="stop-color:#444B9A"/>
			<stop  offset="0.518" style="stop-color:#313E92"/>
			<stop  offset="0.566" style="stop-color:#2B3990"/>
			<stop  offset="0.6784" style="stop-color:#2A2E79"/>
			<stop  offset="0.7951" style="stop-color:#282669"/>
			<stop  offset="0.8675" style="stop-color:#272363"/>
			<stop  offset="1" style="stop-color:#262262"/>
		</linearGradient>
		<linearGradient id="SVGID_6_" gradientUnits="userSpaceOnUse" x1="390.8397" y1="335.1618" x2="399.3984" y2="335.1618">
			<stop  offset="0" style="stop-color:#FFFFFF"/>
			<stop  offset="0.0898" style="stop-color:#C6C4DF"/>
			<stop  offset="0.2206" style="stop-color:#8A87BD"/>
			<stop  offset="0.3384" style="stop-color:#6263A7"/>
			<stop  offset="0.4388" style="stop-color:#444B9A"/>
			<stop  offset="0.518" style="stop-color:#313E92"/>
			<stop  offset="0.566" style="stop-color:#2B3990"/>
			<stop  offset="0.6784" style="stop-color:#2A2E79"/>
			<stop  offset="0.7951" style="stop-color:#282669"/>
			<stop  offset="0.8675" style="stop-color:#272363"/>
			<stop  offset="1" style="stop-color:#262262"/>
		</linearGradient>
		<path class="st4" d="M391.94,337.17c-0.99-1.72-0.7-3.77,0.51-4.85c1.63-1.45,4.38-0.64,5.62,1.02c0.91,1.23,1.19,3.18,0.26,4.34
			C397.17,339.11,394.2,339.29,391.94,337.17z"/>
		<linearGradient id="SVGID_7_" gradientUnits="userSpaceOnUse" x1="393.9309" y1="312.2845" x2="414.8594" y2="312.2845">
			<stop  offset="0" style="stop-color:#FFFFFF"/>
			<stop  offset="0.0898" style="stop-color:#C6C4DF"/>
			<stop  offset="0.2206" style="stop-color:#8A87BD"/>
			<stop  offset="0.3384" style="stop-color:#6263A7"/>
			<stop  offset="0.4388" style="stop-color:#444B9A"/>
			<stop  offset="0.518" style="stop-color:#313E92"/>
			<stop  offset="0.566" style="stop-color:#2B3990"/>
			<stop  offset="0.6784" style="stop-color:#2A2E79"/>
			<stop  offset="0.7951" style="stop-color:#282669"/>
			<stop  offset="0.8675" style="stop-color:#272363"/>
			<stop  offset="1" style="stop-color:#262262"/>
		</linearGradient>
		<linearGradient id="SVGID_8_" gradientUnits="userSpaceOnUse" x1="393.4309" y1="312.2845" x2="415.3594" y2="312.2845">
			<stop  offset="0" style="stop-color:#FFFFFF"/>
			<stop  offset="0.0898" style="stop-color:#C6C4DF"/>
			<stop  offset="0.2206" style="stop-color:#8A87BD"/>
			<stop  offset="0.3384" style="stop-color:#6263A7"/>
			<stop  offset="0.4388" style="stop-color:#444B9A"/>
			<stop  offset="0.518" style="stop-color:#313E92"/>
			<stop  offset="0.566" style="stop-color:#2B3990"/>
			<stop  offset="0.6784" style="stop-color:#2A2E79"/>
			<stop  offset="0.7951" style="stop-color:#282669"/>
			<stop  offset="0.8675" style="stop-color:#272363"/>
			<stop  offset="1" style="stop-color:#262262"/>
		</linearGradient>
		<path class="st5" d="M399.6,320.83c-0.61-0.28-4.26-1.98-5.36-5.87c-1.22-4.3,1.41-8.68,4.85-10.72
			c3.89-2.31,8.96-1.71,12.26,1.28c2.71,2.45,4.37,6.64,3.06,10.21C412.7,320.39,406.16,323.33,399.6,320.83"/>
	</g>
</g>
</svg>
